PathFileType	4	(X/Y/Z)	C:\Users\WrightLab\Desktop\Jo\P3_9.trc
DataRate	CameraRate	NumFrames	NumMarkers	Units	OrigDataRate	OrigDataStartFrame	OrigNumFrames
100.00	100.00	       7	19	mm	100.00	134	       535
Frame#	Time	Headset_Front			Headset_Back			Headset_Left			Headset_Right			Left_Shoulder			Right_Shoulder			Sternum			C7			Left Elbow			Right Elbow			Left Wrist			Right Wrist			Left ASIS			Right ASIS			S2			Left Knee			Right Knee			Left Ankle			Right Ankle			
		X1	Y1	Z1	X2	Y2	Z2	X3	Y3	Z3	X4	Y4	Z4	X5	Y5	Z5	X6	Y6	Z6	X7	Y7	Z7	X8	Y8	Z8	X9	Y9	Z9	X10	Y10	Z10	X11	Y11	Z11	X12	Y12	Z12	X13	Y13	Z13	X14	Y14	Z14	X15	Y15	Z15	X16	Y16	Z16	X17	Y17	Z17	X18	Y18	Z18	X19	Y19	Z19	

134	1.330				-50.86149	1657.10803	1681.46863	-185.63028	1577.25659	1629.87976				-233.66573	1364.48853	1681.49329	113.82562	1386.67334	1730.26501	-45.99298	1258.22351	1583.89734	-67.54521	1429.71887	1760.57544	-341.48096	1076.25085	1569.16321	213.42859	1048.89856	1759.12781	-360.21179	964.05017	1395.23853	230.92683	885.33081	1596.83875	-139.53453	897.99829	1578.20129	-55.10876	975.67706	1811.76270				-130.63712	479.40146	1613.78174	116.63882	465.05536	1622.01074	-109.76167	152.05325	1670.80176	72.66340	283.52319	1904.70544	
135	1.340				-51.04821	1657.75928	1671.95496	-185.00304	1576.81030	1621.60315				-232.99925	1364.96045	1672.74683	114.34017	1386.78723	1720.84875	-45.21756	1258.13953	1574.76440	-66.43564	1429.78577	1751.49121	-341.13733	1076.59570	1562.41736	213.91342	1049.40491	1751.12903	-360.65024	962.65729	1388.48706	231.58345	886.94598	1588.68311	-139.61143	898.69568	1570.73022	-53.35208	975.88885	1803.62256				-131.27649	479.31485	1611.23816	117.88159	467.50928	1604.13147	-109.80473	152.22630	1670.33228	73.28723	281.74350	1883.34106	
136	1.350				-50.72177	1657.87170	1661.35535	-184.52086	1576.67358	1612.07935				-232.46698	1365.30994	1663.34656	114.27950	1386.88403	1711.82007	-44.29623	1257.68604	1567.53296	-65.44250	1430.85461	1743.50806	-340.70197	1076.38245	1554.28430	214.93007	1049.63269	1742.41455	-360.94376	961.35229	1381.84131	232.02243	886.82727	1579.06262	-139.25381	898.90527	1563.08691	-53.11229	976.52930	1795.38989				-130.78479	478.24176	1607.13452	119.81190	470.37256	1584.82935	-109.71603	152.37859	1669.82947	75.57490	280.24374	1861.88086	
137	1.360				-49.99125	1657.58838	1651.53845	-184.30475	1576.12561	1602.04419				-231.82956	1365.42139	1655.41638	116.15617	1387.47754	1702.60828	-44.02482	1257.65283	1558.37793	-64.85064	1430.69995	1733.19092	-340.03915	1076.28674	1546.80603	215.40224	1049.63000	1733.94128	-361.19250	959.44843	1375.38330	233.09218	888.10681	1570.65320	-139.33310	899.24976	1554.52246	-51.88775	977.10779	1789.14990				-130.49855	477.77731	1605.60376	120.97410	473.92239	1568.23047	-109.60001	152.41466	1669.46558	78.86131	275.91623	1839.87695	
138	1.370				-49.10532	1657.92896	1641.93677	-183.55684	1575.94165	1593.72168				-230.85759	1365.53271	1647.03064	116.58277	1387.22424	1694.88599	-43.47066	1257.78760	1549.62952	-64.23952	1431.17749	1724.60779	-339.67838	1075.85339	1540.78772	216.10669	1049.54639	1725.68518	-360.99658	958.26422	1369.14648	233.64998	888.53790	1561.06555	-139.10904	899.48138	1546.15112	-51.01176	975.97089	1779.21191				-130.20271	477.39764	1601.04736	122.22453	476.87500	1550.65234	-109.52151	152.39726	1668.85901	80.82736	271.62231	1817.10266	
139	1.380				-48.48789	1657.66235	1632.19238	-183.07581	1575.54285	1584.95496				-230.20270	1365.47192	1638.34802	116.92304	1387.40759	1685.49768	-42.50422	1257.36890	1542.19678	-63.31591	1431.70898	1717.32129	-339.01395	1075.22815	1532.78674	216.94664	1049.70410	1717.20239	-361.05652	956.20874	1362.76233	234.09296	889.19659	1552.54163	-138.99515	899.28802	1539.28101	-50.08138	977.04694	1772.75024				-130.06734	477.29288	1597.66345	123.76341	479.72476	1533.28418	-109.41666	152.39906	1668.19409	83.85663	266.57117	1794.17700	
140	1.390				-48.35474	1658.03894	1622.52441	-182.76344	1574.50781	1574.67651				-229.58113	1365.60193	1630.97241	118.45904	1386.58496	1675.79578	-42.08879	1257.35742	1533.20203	-62.31873	1431.51257	1707.07581	-338.37070	1075.04785	1526.82263	217.26555	1049.98230	1709.60608	-360.53250	954.07385	1356.79163	235.39394	889.28027	1543.80579	-138.81012	898.85229	1531.64380	-49.33212	976.25195	1763.69202				-129.62416	476.48447	1595.58606	124.82060	483.40378	1517.94739	-109.25949	152.38564	1667.55908	86.03264	261.75101	1771.84607	
